<?xml version="1.0" encoding="UTF-8"?>
<svg width="178px" height="115px" viewBox="0 0 178 115" version="1.1" xmlns="http://www.w3.org/2000/svg" xmlns:xlink="http://www.w3.org/1999/xlink">
    <!-- Generator: Sketch 41.2 (35397) - http://www.bohemiancoding.com/sketch -->
    <title>DSCVR-Logo</title>
    <desc>Created with Sketch.</desc>
    <defs></defs>
    <g id="Page-1" stroke="none" stroke-width="1" fill="none" fill-rule="evenodd">
        <g id="Landing-Page" transform="translate(-632.000000, -358.000000)">
            <g id="DSCVR-Logo" transform="translate(632.000000, 358.000000)">
                <g id="DSCVR_logo" transform="translate(89.000000, 103.000000) rotate(-270.000000) translate(-89.000000, -103.000000) translate(77.000000, 14.000000)" fill="#000000">
                    <path d="M6.57362476,14.086581 L10.7201771,14.086581 C11.1558533,14.086581 11.23892,14.001819 11.23892,13.5559714 C11.23892,12.6829238 11.2694343,11.808181 11.2287486,10.9385238 C11.196539,10.2689048 11.1456819,9.58402857 10.9761581,8.9398381 C10.1437962,5.75448571 7.19069143,4.59494286 4.4257581,5.86128571 C2.65423429,6.67330476 1.95579619,8.23800952 1.89476762,10.1112476 C1.85577714,11.2640095 1.88629143,12.4184667 1.88798667,13.5712286 C1.88798667,13.9882571 1.98461524,14.086581 2.39486286,14.086581 L6.57362476,14.086581 M12.62732,7.84640952 C12.740901,7.46837143 12.8426152,7.09202857 12.9697581,6.72246667 C13.0087486,6.60719048 13.0935105,6.47835238 13.1935295,6.41562857 C16.6111295,4.28810476 20.03212,2.1673619 23.4531105,0.0449238095 C23.4700629,0.034752381 23.4904057,0.0296666667 23.5666914,0.000847619048 C23.4310724,0.3382 23.314101,0.638257143 23.1920438,0.936619048 C22.944539,1.54012381 22.744501,2.17244762 22.4308819,2.73865714 C22.0511486,3.42353333 21.56292,4.04907619 21.1391105,4.71021905 C20.7661581,5.28829524 20.2762343,5.71549524 19.6930724,6.08505714 C17.4858724,7.48701905 15.3024057,8.92458095 13.1002914,10.3367143 C12.8612629,10.490981 12.776501,10.655419 12.7815867,10.9351333 C12.8002343,11.8285238 12.7883676,12.7236095 12.7900629,13.617 C12.7900629,13.979781 12.8900819,14.086581 13.2409962,14.086581 C15.5905962,14.086581 17.9401962,14.0899714 20.2897962,14.0781048 C20.416939,14.0781048 20.5864629,13.9882571 20.666139,13.8865429 C21.0916438,13.3372857 21.49172,12.7676857 21.912139,12.2133429 C21.9850343,12.1167143 22.1087867,12.0556857 22.2664438,11.937019 L22.2664438,19.4604857 C22.1121771,19.3401238 21.9918152,19.2790952 21.9172248,19.1824667 C21.5052819,18.6349048 21.0967295,18.0839524 20.701739,17.5245238 C20.5864629,17.3634762 20.466101,17.3007524 20.2660629,17.3007524 C14.2988248,17.3058381 8.33158667,17.3041429 2.36604381,17.3143143 C2.22872952,17.3143143 2.04733905,17.4075524 1.96257714,17.5160476 C1.54046286,18.0568286 1.14547238,18.6179524 0.735224762,19.1672095 C0.664024762,19.2638381 0.562310476,19.3384286 0.418215238,19.4774381 C0.394481905,19.313 0.377529524,19.2468857 0.377529524,19.1790762 C0.379224762,15.6970571 0.350405714,12.2150381 0.397872381,8.73301905 C0.419910476,7.15644762 0.809815238,5.65107619 1.76084381,4.34404762 C2.65253905,3.12008571 3.86124381,2.42842857 5.35813905,2.24195238 C6.4820819,2.10124762 7.5941581,2.12667619 8.66893905,2.54031429 C10.2675486,3.15229524 11.3355486,4.3033619 11.9763486,5.85789524 C12.2391105,6.49530476 12.4086343,7.17000952 12.62732,7.84640952" id="Fill-1"></path>
                    <path d="M11.3180876,172.169737 L20.2655543,172.169737 C20.6300305,172.169737 20.7537829,172.052766 20.7520876,171.69168 C20.7436114,170.277851 20.7571733,168.864023 20.7097067,167.453585 C20.6758019,166.463566 20.4333829,165.509147 19.992621,164.612366 C19.1280495,162.854404 17.6752305,161.803356 15.8698019,161.191375 C14.2203352,160.630251 12.5132305,160.472594 10.7790019,160.530232 C9.1498781,160.58448 7.55635429,160.813337 6.05606857,161.482956 C3.47083048,162.637413 2.10446857,164.656442 1.94511619,167.463756 C1.86544,168.862328 1.90104,170.265985 1.8874781,171.667947 C1.88408762,172.084975 1.97393524,172.169737 2.40283048,172.169737 L11.3180876,172.169737 M0.399059048,177.552118 C0.383801905,177.396156 0.377020952,177.35547 0.377020952,177.314785 C0.37871619,173.853109 0.324468571,170.389737 0.402449524,166.931451 C0.461782857,164.329261 1.40264,162.027128 3.26401143,160.16067 C4.69648762,158.726499 6.45105905,157.872099 8.42262095,157.45168 C10.4840305,157.012613 12.552221,157.019394 14.5932876,157.527966 C17.6277638,158.284042 19.9129448,160.013185 21.2725257,162.883223 C21.9641829,164.344518 22.2625448,165.893966 22.2727162,167.495966 C22.2913638,170.749128 22.2778019,174.00229 22.2778019,177.257147 C22.2778019,177.318175 22.271021,177.379204 22.26424,177.53347 C22.1252305,177.431756 22.0116495,177.380899 21.9455352,177.294442 C21.5200305,176.731623 21.1114781,176.153547 20.6774971,175.597509 C20.5927352,175.489013 20.4147352,175.388994 20.2791162,175.388994 C14.3135733,175.378823 8.34633524,175.380518 2.37909714,175.377128 C2.18244952,175.375432 2.0570019,175.434766 1.94172571,175.599204 C1.54164952,176.167109 1.12462095,176.724842 0.707592381,177.282575 C0.643173333,177.369032 0.541459048,177.430061 0.399059048,177.552118" id="Fill-3"></path>
                    <path d="M13.8375505,134.23709 C13.8222933,134.198099 13.8104267,134.181147 13.8087314,134.160804 C13.7612648,133.433547 13.76296,133.442023 14.4580076,133.235204 C16.0244076,132.770709 17.5619886,132.236709 18.8503695,131.183966 C20.2387695,130.049851 21.0473981,128.61568 21.0982552,126.791604 C21.1202933,126.005013 21.06096,125.235375 20.733779,124.508118 C20.1760457,123.27229 19.1758552,122.606061 17.8806933,122.341604 C17.2076838,122.20429 16.5261981,122.153432 15.8413219,122.300918 C14.8157029,122.522994 14.22576,123.267204 13.7154933,124.09109 C13.0780838,125.120099 12.6898743,126.260994 12.2914933,127.395109 C11.8303886,128.707223 11.3438552,130.010861 10.5148838,131.144975 C9.68760762,132.277394 8.68741714,133.194518 7.24985524,133.469147 C5.62581714,133.78107 4.0661981,133.67427 2.67271238,132.662213 C1.48604571,131.802728 0.789302857,130.60928 0.392617143,129.229356 C-0.0515352381,127.678213 -0.0803542857,126.101642 0.117988571,124.508118 C0.277340952,123.218042 0.643512381,122.000861 1.24701714,120.848099 C1.35890286,120.63789 1.47756952,120.551432 1.72337905,120.554823 C3.09482667,120.56669 4.46796952,120.559909 5.83941714,120.559909 L6.16490286,120.559909 L6.16490286,121.163413 C5.89705524,121.209185 5.62242667,121.24309 5.35288381,121.304118 C3.03888381,121.827947 1.62336,123.538442 1.5385981,125.935509 C1.49282667,127.264575 1.80983619,128.46989 2.74391238,129.485337 C3.89158857,130.733032 6.43105524,130.958499 7.72113143,129.11408 C8.57722667,127.890118 9.11461714,126.528842 9.61640762,125.143832 C10.0724267,123.88427 10.5504838,122.63488 11.3201219,121.52789 C12.1033219,120.403947 13.0458743,119.432575 14.4630933,119.207109 C16.938141,118.812118 19.2063695,119.234232 20.9694171,121.195623 C21.8611124,122.189032 22.3289981,123.396042 22.52056,124.701375 C22.8494362,126.940785 22.5290362,129.105604 21.6542933,131.185661 C21.1830171,132.307909 20.5540838,133.326747 19.5996648,134.111642 C19.5115124,134.184537 19.3843695,134.252347 19.2758743,134.252347 C17.4873981,134.260823 15.6989219,134.257432 13.912141,134.255737 C13.8917981,134.255737 13.8714552,134.245566 13.8375505,134.23709" id="Fill-5"></path>
                    <path d="M16.0676362,79.1147276 C16.2354648,78.8638324 16.37956,78.6248038 16.5490838,78.4078133 C16.59316,78.3518705 16.73556,78.3162705 16.8033695,78.3433943 C20.0667029,79.6639848 22.3027219,82.1254705 22.5926076,85.8651657 C22.7739981,88.2012038 22.4620743,90.4609562 21.4313695,92.58848 C20.2277505,95.0703086 18.26636,96.6706133 15.6641695,97.5267086 C13.8841695,98.1115657 12.0499219,98.2861752 10.1953314,98.135299 C7.72197905,97.9335657 5.48596,97.0774705 3.61441714,95.4110514 C1.11224571,93.186899 -0.0456019048,90.3575467 0.00864571429,87.0331848 C0.0408552381,85.0328038 0.423979048,83.0985371 1.24956,81.2642895 C1.31228381,81.1269752 1.36822667,81.05408 1.53605524,81.05408 C3.08550286,81.0625562 4.63495048,81.0591657 6.18270286,81.060861 C6.21321714,81.060861 6.24203619,81.0710324 6.28950286,81.0795086 L6.28950286,81.523661 C5.85382667,81.69488 5.39950286,81.8559276 4.95704571,82.0491848 C2.78714095,82.9968229 1.63098857,84.6598514 1.54114095,87.0247086 C1.43434095,89.8133752 2.68203619,91.8459657 5.10961714,93.1631657 C6.4963219,93.9141562 8.00847429,94.26168 9.56978857,94.4159467 C11.139579,94.5719086 12.7025886,94.5498705 14.2452552,94.2159086 C16.52196,93.720899 18.5121695,92.73088 19.8937886,90.7644038 C20.7973505,89.4794133 21.1550457,88.0367657 21.1024933,86.4737562 C21.0024743,83.4341943 19.5801695,81.1947848 17.0017124,79.6504229 C16.7016552,79.4707276 16.3948171,79.3012038 16.0676362,79.1147276" id="Fill-7"></path>
                    <path d="M2.10735048,42.5904838 C1.62929333,43.23976 1.16818857,43.8669981 0.701998095,44.4891505 C0.639274286,44.5722171 0.540950476,44.6298552 0.39516,44.7519124 L0.39516,38.7643314 C0.534169524,38.8813029 0.63588381,38.938941 0.700302857,39.0237029 C1.11902667,39.579741 1.5207981,40.1476457 1.94630286,40.6969029 C2.05310286,40.8359124 2.21076,40.9630552 2.37180762,41.025779 C8.93237905,43.5872838 15.496341,46.1420076 22.0603029,48.6967314 C22.1281124,48.72216 22.1942267,48.7526743 22.2772933,48.786579 C22.2772933,49.2002171 22.2925505,49.6155505 22.2654267,50.0291886 C22.260341,50.1190362 22.1264171,50.2377029 22.0247029,50.2766933 C20.2836933,50.9429219 18.5375981,51.598979 16.7931981,52.2550362 C11.9770267,54.0706362 7.15916,55.884541 2.34468381,57.7052267 C2.20228381,57.7594743 2.05988381,57.8730552 1.96495048,57.9968076 C1.54961714,58.540979 1.15293143,59.1004076 0.74268381,59.6479695 C0.666398095,59.7496838 0.552817143,59.8208838 0.391769524,59.9632838 L0.391769524,52.3092838 C0.532474286,52.4160838 0.642664762,52.4686362 0.708779048,52.5550933 C1.17496952,53.1772457 1.63437905,53.806179 2.10904571,54.4520648 C4.7603981,53.450179 7.39310286,52.42456 10.0478457,51.46336 C12.7008933,50.5004648 15.2725695,49.3121029 18.0069886,48.6340076 C15.340379,47.8355505 12.790741,46.6946552 10.18516,45.7097219 C7.56940762,44.7213981 4.96721714,43.695779 2.35824571,42.6871124 C2.28196,42.6565981 2.20567429,42.627779 2.10735048,42.5904838" id="Fill-9"></path>
                </g>
                <g id="Icon" transform="translate(58.000000, 0.000000)" stroke="#1D1C1B" stroke-width="1.5" stroke-linejoin="bevel">
                    <path d="M59.8682806,30.3576667 C59.8682806,46.6565278 46.6566972,59.8681111 30.3578361,59.8681111 C14.058975,59.8681111 0.847391667,46.6565278 0.847391667,30.3576667 C0.847391667,14.0588056 14.058975,0.847222222 30.3578361,0.847222222 C46.6566972,0.847222222 59.8682806,14.0588056 59.8682806,30.3576667 Z" id="Stroke-1"></path>
                    <path d="M53.4461667,47.8473833 C51.9160833,46.5850222 50.8858611,44.8397444 48.0408889,44.8397444 C43.5811111,44.8397444 43.5811111,49.1199111 39.1230278,49.1199111 C34.6666389,49.1199111 34.6666389,44.8397444 30.2051667,44.8397444 C25.7453889,44.8397444 25.7453889,49.1199111 21.2839167,49.1199111 C16.82075,49.1199111 16.82075,44.8397444 12.3525,44.8397444 C9.62105556,44.8397444 8.56202778,46.4359111 7.12852778,47.6796333" id="Stroke-3"></path>
                    <path d="M50.4858028,51.4457056 C49.8283583,51.1068167 49.0489139,50.8882333 48.0407194,50.8865389 C43.5809417,50.8865389 43.5809417,55.1684 39.1228583,55.1684 C34.6664694,55.1684 34.6664694,50.8865389 30.2049972,50.8865389 C25.7452194,50.8865389 25.7452194,55.1684 21.2854417,55.1684 C16.8205806,55.1684 16.8205806,50.8865389 12.3523306,50.8865389 C11.3509139,50.8848444 10.5748583,51.1000389 9.92249722,51.4338444" id="Stroke-5"></path>
                    <path d="M1.633275,36 L7.62991389,36" id="Stroke-7"></path>
                    <path d="M52.8902194,36 L58.8868583,36" id="Stroke-9"></path>
                    <path d="M48.6491944,29.293725 L57.9838889,19.9590306" id="Stroke-11"></path>
                    <path d="M12.1142611,29.1191972 L2.85920556,19.8641417" id="Stroke-13"></path>
                    <path d="M18.0382083,18.4238639 L11.0604861,7.348975" id="Stroke-15"></path>
                    <path d="M57.5019889,43.3737111 C52.9981556,43.3737111 52.9981556,39.0477944 48.4960167,39.0477944 C43.9921833,39.0477944 43.9921833,43.3737111 39.4866556,43.3737111 C34.9862111,43.3737111 34.9862111,39.0477944 30.4840722,39.0477944 C25.9785444,39.0477944 25.9785444,43.3737111 21.4713222,43.3737111 C16.9641,43.3737111 16.9641,39.0477944 12.4551833,39.0477944 C7.94626667,39.0477944 7.94626667,43.3737111 3.43735,43.3737111" id="Stroke-17"></path>
                    <polyline id="Stroke-19" points="38.37815 43.5989028 20.99315 13.8359861 3.69965 43.3565972"></polyline>
                    <polyline id="Stroke-21" points="45.7335639 40.2679639 30.5818417 13.836325 15.1776472 40.2679639"></polyline>
                    <polyline id="Stroke-23" points="57.1791972 43.5989028 39.8433361 13.8359861 23.0971417 43.0312639"></polyline>
                    <path d="M42.2436861,18.5528111 L49.2214083,7.47792222" id="Stroke-25"></path>
                    <path d="M37.3985917,1.85660278 C37.3985917,1.85660278 34.2808139,0.846713889 30.0447028,0.846713889 C25.8085917,0.846713889 23.0974806,1.88540833 23.0974806,1.88540833 C23.0974806,5.85888056 26.2288139,8.61065833 30.2039806,8.61065833 C34.1774528,8.61065833 37.3985917,5.830075 37.3985917,1.85660278 Z" id="Stroke-27"></path>
                </g>
            </g>
        </g>
    </g>
</svg>