<?xml version="1.0" encoding="UTF-8"?>
<svg width="61px" height="61px" viewBox="0 0 61 61" version="1.1" xmlns="http://www.w3.org/2000/svg" xmlns:xlink="http://www.w3.org/1999/xlink">
    <!-- Generator: Sketch 41.2 (35397) - http://www.bohemiancoding.com/sketch -->
    <title>footer-icon</title>
    <desc>Created with Sketch.</desc>
    <defs></defs>
    <g id="Page-1" stroke="none" stroke-width="1" fill="none" fill-rule="evenodd" stroke-linejoin="bevel">
        <g id="Landing-Page" transform="translate(-690.000000, -7164.000000)" stroke="#1D1C1B" stroke-width="1.5">
            <g id="footer-icon" transform="translate(690.000000, 7164.000000)">
                <path d="M59.8682806,30.3576667 C59.8682806,46.6565278 46.6566972,59.8681111 30.3578361,59.8681111 C14.058975,59.8681111 0.847391667,46.6565278 0.847391667,30.3576667 C0.847391667,14.0588056 14.058975,0.847222222 30.3578361,0.847222222 C46.6566972,0.847222222 59.8682806,14.0588056 59.8682806,30.3576667 Z" id="Stroke-1"></path>
                <path d="M53.4461667,47.8473833 C51.9160833,46.5850222 50.8858611,44.8397444 48.0408889,44.8397444 C43.5811111,44.8397444 43.5811111,49.1199111 39.1230278,49.1199111 C34.6666389,49.1199111 34.6666389,44.8397444 30.2051667,44.8397444 C25.7453889,44.8397444 25.7453889,49.1199111 21.2839167,49.1199111 C16.82075,49.1199111 16.82075,44.8397444 12.3525,44.8397444 C9.62105556,44.8397444 8.56202778,46.4359111 7.12852778,47.6796333" id="Stroke-3"></path>
                <path d="M50.4858028,51.4457056 C49.8283583,51.1068167 49.0489139,50.8882333 48.0407194,50.8865389 C43.5809417,50.8865389 43.5809417,55.1684 39.1228583,55.1684 C34.6664694,55.1684 34.6664694,50.8865389 30.2049972,50.8865389 C25.7452194,50.8865389 25.7452194,55.1684 21.2854417,55.1684 C16.8205806,55.1684 16.8205806,50.8865389 12.3523306,50.8865389 C11.3509139,50.8848444 10.5748583,51.1000389 9.92249722,51.4338444" id="Stroke-5"></path>
                <path d="M1.633275,36 L7.62991389,36" id="Stroke-7"></path>
                <path d="M52.8902194,36 L58.8868583,36" id="Stroke-9"></path>
                <path d="M48.6491944,29.293725 L57.9838889,19.9590306" id="Stroke-11"></path>
                <path d="M12.1142611,29.1191972 L2.85920556,19.8641417" id="Stroke-13"></path>
                <path d="M18.0382083,18.4238639 L11.0604861,7.348975" id="Stroke-15"></path>
                <path d="M57.5019889,43.3737111 C52.9981556,43.3737111 52.9981556,39.0477944 48.4960167,39.0477944 C43.9921833,39.0477944 43.9921833,43.3737111 39.4866556,43.3737111 C34.9862111,43.3737111 34.9862111,39.0477944 30.4840722,39.0477944 C25.9785444,39.0477944 25.9785444,43.3737111 21.4713222,43.3737111 C16.9641,43.3737111 16.9641,39.0477944 12.4551833,39.0477944 C7.94626667,39.0477944 7.94626667,43.3737111 3.43735,43.3737111" id="Stroke-17"></path>
                <polyline id="Stroke-19" points="38.37815 43.5989028 20.99315 13.8359861 3.69965 43.3565972"></polyline>
                <polyline id="Stroke-21" points="45.7335639 40.2679639 30.5818417 13.836325 15.1776472 40.2679639"></polyline>
                <polyline id="Stroke-23" points="57.1791972 43.5989028 39.8433361 13.8359861 23.0971417 43.0312639"></polyline>
                <path d="M42.2436861,18.5528111 L49.2214083,7.47792222" id="Stroke-25"></path>
                <path d="M37.3985917,1.85660278 C37.3985917,1.85660278 34.2808139,0.846713889 30.0447028,0.846713889 C25.8085917,0.846713889 23.0974806,1.88540833 23.0974806,1.88540833 C23.0974806,5.85888056 26.2288139,8.61065833 30.2039806,8.61065833 C34.1774528,8.61065833 37.3985917,5.830075 37.3985917,1.85660278 Z" id="Stroke-27"></path>
            </g>
        </g>
    </g>
</svg>