<?xml version="1.0" encoding="UTF-8"?>
<svg width="24px" height="24px" viewBox="0 0 24 24" version="1.1" xmlns="http://www.w3.org/2000/svg" xmlns:xlink="http://www.w3.org/1999/xlink">
    <!-- Generator: Sketch 41.2 (35397) - http://www.bohemiancoding.com/sketch -->
    <title>instagram</title>
    <desc>Created with Sketch.</desc>
    <defs></defs>
    <g id="Page-1" stroke="none" stroke-width="1" fill="none" fill-rule="evenodd">
        <g id="Landing-Page" transform="translate(-725.000000, -7660.000000)" fill="#000000">
            <g id="Group-2" transform="translate(436.000000, 7170.000000)">
                <g id="instagram" transform="translate(289.000000, 490.000000)">
                    <path d="M12.144,6 C8.784,6 6,8.68235294 6,12.0235294 C6,15.3647059 8.736,18.0470588 12.144,18.0470588 C15.552,18.0470588 18.288,15.3176471 18.288,12.0235294 C18.288,8.72941176 15.504,6 12.144,6 L12.144,6 Z M12.144,15.8823529 C9.984,15.8823529 8.208,14.1411765 8.208,12.0235294 C8.208,9.90588235 9.984,8.16470588 12.144,8.16470588 C14.304,8.16470588 16.08,9.90588235 16.08,12.0235294 C16.08,14.1411765 14.304,15.8823529 12.144,15.8823529 L12.144,15.8823529 Z" id="Shape"></path>
                    <ellipse id="Oval" cx="18.392" cy="5.36470588" rx="1.392" ry="1.36470588"></ellipse>
                    <path d="M21.888,1.92941176 C20.64,0.658823529 18.864,0 16.848,0 L6.96,0 C2.784,0 0,2.72941176 0,6.82352941 L0,16.4705882 C0,18.4941176 0.672,20.2352941 2.016,21.5058824 C3.312,22.7294118 5.04,23.3411765 7.008,23.3411765 L16.8,23.3411765 C18.864,23.3411765 20.592,22.6823529 21.84,21.5058824 C23.136,20.2823529 23.808,18.5411765 23.808,16.5176471 L23.808,6.82352941 C23.808,4.84705882 23.136,3.15294118 21.888,1.92941176 L21.888,1.92941176 Z M21.6,16.5176471 C21.6,17.9764706 21.168,19.1529412 20.304,19.9529412 C19.44,20.7529412 18.24,21.1764706 16.8,21.1764706 L7.008,21.1764706 C5.568,21.1764706 4.368,20.7529412 3.504,19.9529412 C2.64,19.1058824 2.208,17.9294118 2.208,16.4705882 L2.208,6.82352941 C2.208,5.41176471 2.64,4.23529412 3.504,3.38823529 C4.32,2.58823529 5.568,2.16470588 7.008,2.16470588 L16.896,2.16470588 C18.336,2.16470588 19.536,2.58823529 20.4,3.43529412 C21.216,4.28235294 21.696,5.45882353 21.696,6.82352941 L21.696,16.5176471 L21.6,16.5176471 Z" id="Shape"></path>
                </g>
            </g>
        </g>
    </g>
</svg>